<svg width="50" height="50" xmlns="http://www.w3.org/2000/svg" xml:space="preserve" version="1.1">

 <g>
  <title>Layer 1</title>
  <g id="Layer_2"/>
  <g id="Layer_3"/>
  <g id="Layer_4"/>
  <g id="Layer_5"/>
  <g id="Layer_6"/>
  <g id="Layer_7"/>
  <g id="Layer_8"/>
  <g id="Layer_9"/>
  <g id="Layer_10"/>
  <g id="Layer_11"/>
  <g id="Layer_12"/>
  <g id="Layer_13"/>
  <g id="Layer_15"/>
  <g id="Layer_16"/>
  <g id="Layer_17"/>
  <g id="Layer_18"/>
  <g id="Layer_19"/>
  <g id="Layer_20"/>
  <g id="Layer_21"/>
  <g id="Layer_22"/>
  <g id="Layer_23"/>
  <g id="Layer_24"/>
  <g id="Layer_25">
   <g id="svg_1">
    <path id="svg_2" d="m9.14561,30.03184c-1.43907,0 -2.55835,1.16352 -2.55835,2.65947c0,1.49595 1.11928,2.65947 2.55835,2.65947s2.55835,-1.16352 2.55835,-2.65947c0,-1.49595 -1.11928,-2.65947 -2.55835,-2.65947zm0,3.49056c-0.47969,0 -0.79948,-0.33243 -0.79948,-0.83108c0,-0.49865 0.31979,-0.83108 0.79948,-0.83108c0.47969,0 0.79948,0.33243 0.79948,0.83108c0,0.41554 -0.31979,0.83108 -0.79948,0.83108z"/>
    <path id="svg_3" d="m38.40669,30.03184c-1.43907,0 -2.55835,1.16352 -2.55835,2.65947c0,1.49595 1.11928,2.65947 2.55835,2.65947s2.55835,-1.16352 2.55835,-2.65947c0,-1.49595 -1.11928,-2.65947 -2.55835,-2.65947zm0,3.49056c-0.47969,0 -0.79948,-0.33243 -0.79948,-0.83108c0,-0.49865 0.31979,-0.83108 0.79948,-0.83108s0.79948,0.33243 0.79948,0.83108c0,0.41554 -0.31979,0.83108 -0.79948,0.83108z"/>
    <path id="svg_4" d="m48.79996,18.97841l-0.47969,0c-0.55964,-3.49056 -4.23726,-7.97841 -9.59379,-7.97841l-18.14826,0c-4.7969,0 -8.95421,7.56287 -9.99354,9.64058l-4.637,0c-3.43778,0 -6.15602,2.9088 -6.15602,6.39935l0,4.65407c0,0.9973 0.79948,1.82839 1.75886,1.82839l1.83881,0c0.39974,2.9088 2.87814,5.15272 5.75628,5.15272s5.35654,-2.24393 5.75628,-5.15272l17.74852,0c0.39974,2.9088 2.87814,5.15272 5.75628,5.15272c2.87814,0 5.35654,-2.24393 5.75628,-5.15272l2.4784,0c0.95938,0 1.75886,-0.83108 1.75886,-1.82839l0,-4.32164l0.39974,0c1.19922,0 2.1586,-0.9973 2.1586,-2.24393l0,-3.9061c0,-1.24663 -0.95938,-2.24393 -2.1586,-2.24393zm-39.65435,17.86832c-2.23855,0 -4.07736,-1.91149 -4.07736,-4.23853c0,-2.32704 1.83881,-4.23853 4.07736,-4.23853s4.07736,1.91149 4.07736,4.23853c0,2.41015 -1.83881,4.23853 -4.07736,4.23853zm29.26107,0c-2.23855,0 -4.07736,-1.91149 -4.07736,-4.23853c0,-2.32704 1.83881,-4.23853 4.07736,-4.23853c2.23855,0 4.07736,1.91149 4.07736,4.23853c0,2.41015 -1.83881,4.23853 -4.07736,4.23853zm8.23467,-5.06962l-2.4784,0c-0.39974,-2.9088 -2.87814,-5.15272 -5.75628,-5.15272c-2.87814,0 -5.35654,2.24393 -5.75628,5.15272l-17.74852,0c-0.39974,-2.9088 -2.87814,-5.15272 -5.75628,-5.15272s-5.35654,2.24393 -5.75628,5.15272l-1.83881,0l0,-4.65407c0,-2.49325 1.99871,-4.57097 4.39716,-4.57097l5.11669,0c0.31979,0 0.63959,-0.16622 0.79948,-0.49865c1.19922,-2.57636 5.11669,-9.14193 8.71436,-9.14193l18.06831,0c4.95679,0 7.91488,4.57097 7.91488,7.06422l0,6.56557l0,5.23583l0.07995,0zm2.55835,-6.64868c0,0.24933 -0.1599,0.41554 -0.39974,0.41554l-0.39974,0l0,-4.73718l0.39974,0c0.23984,0 0.39974,0.16622 0.39974,0.41554l0,3.9061z"/>
    <path id="svg_5" d="m28.4931,14.82299l-5.91617,0c-2.3185,0 -4.55705,1.16352 -5.75628,3.15812l-1.99871,3.15812c-0.1599,0.24933 -0.1599,0.66487 0,0.91419c0.1599,0.33243 0.47969,0.49865 0.79948,0.49865l12.87167,0c0.47969,0 0.87943,-0.41554 0.87943,-0.91419l0,-5.9007c0,-0.49865 -0.39974,-0.91419 -0.87943,-0.91419zm-0.87943,5.9007l-10.39328,0l1.11928,-1.74528c0.87943,-1.41284 2.4784,-2.32704 4.23726,-2.32704l5.03674,0l0,4.07231z"/>
    <path id="svg_6" d="m37.20746,14.82299l-5.03674,0c-0.47969,0 -0.87943,0.41554 -0.87943,0.91419l0,5.9007c0,0.49865 0.39974,0.91419 0.87943,0.91419l11.11281,0c0.47969,0 0.87943,-0.41554 0.87943,-0.91419c0.07995,-3.73988 -3.03803,-6.81489 -6.9555,-6.81489zm-4.07736,5.9007l0,-4.07231l4.15731,0c2.55835,0 4.71695,1.74528 5.11669,4.07231l-9.274,0z"/>
   </g>
  </g>
  <g id="Layer_26"/>
  <g id="Layer_27"/>
 </g>
</svg>