<svg width="50" height="50" xmlns="http://www.w3.org/2000/svg" data-name="Layer 1">
 <title/>

 <g>
  <title>Layer 1</title>
  <path id="svg_1" d="m27.40348,38.32607a13.67542,19.16726 0 0 0 1.64522,-2.78788c0.01397,-0.02711 0.02687,-0.05422 0.03976,-0.08284a13.54002,18.97749 0 0 0 2.25022,-11.69827a0.83604,1.17178 0 0 0 -0.01182,-0.26056a13.5239,18.9549 0 0 0 -1.30135,-6.8334a0.94028,1.31788 0 0 0 -0.04943,-0.15061a13.55399,18.99707 0 0 0 -6.13814,-8.61367a0.93491,1.31035 0 0 0 -0.11928,-0.07983a13.53357,18.96845 0 0 0 -4.85936,-1.82244a0.82315,1.15371 0 0 0 -0.19128,-0.01807a13.53142,18.96544 0 0 0 -8.36795,3.16291l-0.03331,0.03163a13.54002,18.97749 0 0 0 -3.66763,5.14802l0,0a13.54002,18.97749 0 0 0 -2.26742,11.74797a0.89515,1.25462 0 0 0 0.01182,0.2696a13.55721,19.00159 0 0 0 1.30135,6.81683a0.82315,1.15371 0 0 0 0.05373,0.15061a13.55399,18.99707 0 0 0 6.14566,8.62271a0.85968,1.20492 0 0 0 0.10746,0.0738a13.55399,18.99707 0 0 0 4.88085,1.82094a0.98864,1.38566 0 0 0 0.1354,0.01657l0.02472,0c0.27832,0.0241 0.55665,0.03765 0.83604,0.03765a13.52497,18.9564 0 0 0 7.54158,-3.2081l0.02472,-0.02259a13.63029,19.104 0 0 0 2.00844,-2.32098zm0.78554,-5.43419l-3.98678,-5.58932l5.4375,-2.04083a11.82065,16.56765 0 0 1 -1.45072,7.63016zm-0.24501,-16.55259l-5.45039,2.04234l1.46361,-7.63016a11.84967,16.60831 0 0 1 3.98571,5.59233l0.00107,-0.00452zm-10.35059,-7.98259l-1.46146,7.63618l-3.99538,-5.59987a11.83032,16.5812 0 0 1 5.45577,-2.03631l0.00107,0zm-6.92798,3.38131l5.30425,7.43436a0.85968,1.20492 0 0 0 0.60823,0.35244a0.87795,1.23052 0 0 0 0.22029,-0.03765a0.85968,1.20492 0 0 0 0.60823,-0.85248l1.94074,-10.14241a11.80238,16.54204 0 0 1 3.03898,1.13714l-1.93429,10.14543a0.85968,1.20492 0 0 0 0.82852,1.51971a0.82852,1.16124 0 0 0 0.22244,-0.04217l7.23424,-2.71107a11.83892,16.59325 0 0 1 0.81025,4.25939l-7.22887,2.71107a0.85968,1.20492 0 0 0 -0.38578,2.01673l5.29565,7.42231a11.88298,16.65501 0 0 1 -2.22766,3.12225l-5.29565,-7.42231a0.85968,1.20492 0 0 0 -1.4389,0.54071l-1.93429,10.13639a11.83032,16.5812 0 0 1 -3.04436,-1.13262l1.93429,-10.14693a0.85968,1.20492 0 0 0 -1.05311,-1.47603l-7.24176,2.72312a11.86149,16.62488 0 0 1 -0.81133,-4.26542l7.24391,-2.72312a0.85968,1.20492 0 0 0 0.38578,-2.01523l-5.30532,-7.43436a11.84644,16.6038 0 0 1 2.22873,-3.12225l-0.00322,0.00301zm12.86409,27.68303a11.82065,16.56765 0 0 1 -5.4418,2.04083l1.45716,-7.62865l3.98463,5.58782zm-16.05352,-22.49435l3.99645,5.60137l-5.45147,2.04234a11.83355,16.58572 0 0 1 1.45501,-7.64371zm0.24608,16.56765l5.45577,-2.04987l-1.46039,7.6422a11.83892,16.59325 0 0 1 -3.99538,-5.59233zm10.10881,-3.97172a3.29366,4.61635 0 1 0 -2.32974,-1.35553a3.28077,4.59828 0 0 0 2.32974,1.35403l0,0.00151zm-1.11329,-6.17521a1.57537,2.20802 0 1 1 0,3.12375a1.57322,2.205 0 0 1 0,-3.12827l0,0.00452zm33.14511,-4.5064l0,-8.38022a5.84585,8.19346 0 0 0 -5.8394,-8.18442l-18.77227,0a17.76751,24.90268 0 1 0 -7.42015,47.52957a17.95235,25.16174 0 0 0 3.38393,-0.45184l22.80848,0a5.84477,8.19195 0 0 0 5.8394,-8.17839l0,-8.38022a5.84155,8.18743 0 0 0 -2.79397,-6.9795a5.84048,8.18592 0 0 0 2.79397,-6.9795l0,0.00452zm-1.71937,13.959l0,2.98218l-2.7886,0l2.52854,-4.99891a4.11466,5.76705 0 0 1 0.26005,2.01222l0,0.00452zm-0.33205,10.64848l-2.5092,-5.25646l2.84125,0l0,2.98368a4.09962,5.74596 0 0 1 -0.33205,2.26826l0,0.00452zm0.33205,-32.98468l0,2.98218l-2.7886,0l2.52854,-5.00192a4.11466,5.76705 0 0 1 0.26005,2.01673l0,0.00301zm-4.89482,2.98218l-3.20555,0l4.40588,-8.72513a4.10499,5.75349 0 0 1 2.41356,1.5679l-3.6139,7.15722zm-8.57105,22.33168l4.18236,-8.75977l3.50106,0l-4.42522,8.75977l-3.2582,0zm4.47895,-11.16961l-4.4263,-8.75826l3.20555,0l4.4263,8.75826l-3.20555,0zm-1.22075,-11.16509l-3.2582,0l4.18236,-8.75676l3.50106,0l-4.42522,8.75676zm-4.78414,-1.13564a17.58591,24.64814 0 0 0 -1.58612,-3.18701l2.11697,-4.43411l3.10346,0l-3.63431,7.62112zm3.89867,12.30073l-1.46684,0a17.86853,25.04426 0 0 0 -0.17838,-3.25328l1.64522,3.25328zm-1.52916,2.40984l1.26481,0l-1.65274,3.46414a17.84596,25.01263 0 0 0 0.38793,-3.46414zm-2.77463,11.41059l4.29842,8.51427l-3.28936,0l-2.84233,-5.19471a17.68907,24.79273 0 0 0 1.83328,-3.31654l0,-0.00301zm1.98372,-0.244l3.20555,0l4.4263,8.75826l-3.20555,0l-4.4263,-8.75826zm5.31285,0l3.1905,0l3.49999,7.33043a4.10714,5.7565 0 0 1 -2.27924,1.3962l-4.41125,-8.72663zm3.20555,-2.40984l-3.20555,0l4.40588,-8.72513a4.10499,5.75349 0 0 1 2.41356,1.5679l-3.6139,7.15722zm-3.20555,-19.92184l3.1905,0l3.49999,7.32893a4.10069,5.74747 0 0 1 -2.27924,1.39771l-4.41125,-8.72663zm5.25912,0l2.84125,0l0,2.98368a4.09424,5.73843 0 0 1 -0.33205,2.27127l-2.5092,-5.25496zm-13.68939,-11.16659l-1.23902,2.60112a18.07163,25.32892 0 0 0 -2.17715,-2.5951l3.41617,-0.00602zm-25.1307,36.1235c-6.25635,-8.7673 -6.25635,-23.03355 0,-31.80085a16.06104,22.51092 0 0 1 22.6892,0c6.25527,8.7673 6.25527,23.03355 0,31.80085s-16.42963,8.7673 -22.6892,0zm23.19427,2.64631l1.9085,3.48975l-5.48048,0a17.73098,24.85147 0 0 0 3.57628,-3.48975l-0.0043,0z"/>
 </g>
</svg>